<svg width="256" height="320" xmlns="http://www.w3.org/2000/svg">
  <defs>
    <filter x="-11.2%" y="-14.1%" width="122.5%" height="128.1%" filterUnits="objectBoundingBox" id="filter-1">
      <feOffset in="SourceAlpha" result="shadowOffsetOuter1"/>
      <feGaussianBlur stdDeviation="1.5" in="shadowOffsetOuter1" result="shadowBlurOuter1"/>
      <feColorMatrix values="0 0 0 0 0 0 0 0 0 0 0 0 0 0 0 0 0 0 0.5 0" in="shadowBlurOuter1" result="shadowMatrixOuter1"/>
      <feMerge>
        <feMergeNode in="shadowMatrixOuter1"/>
        <feMergeNode in="SourceGraphic"/>
      </feMerge>
    </filter>
  </defs>
  <g id="Page-1" fill="none" fill-rule="evenodd">
    <g id="Artboard" transform="translate(-32 -24)">
      <g id="calculator" transform="translate(32 24)">
        <g id="Body" fill-rule="nonzero">
          <path d="M256 96H0v192c0 17.6 14.4 32 32 32h192c17.6 0 32-14.4 32-32V96z" id="Shape" fill="#616161"/>
          <path d="M224 0H32C14.4 0 0 14.4 0 32v72h256V32c0-17.6-14.4-32-32-32z" id="Shape" fill="#424242"/>
          <path d="M224 80H32c-4.8 0-8-3.2-8-8V32c0-4.8 3.2-8 8-8h192c4.8 0 8 3.2 8 8v40c0 4.8-3.2 8-8 8z" id="Shape" fill="#9CCC65"/>
        </g>
        <g id="one" transform="translate(24 120)">
          <path d="M32 32H8c-4.8 0-8-3.2-8-8V8c0-4.8 3.2-8 8-8h24c4.8 0 8 3.2 8 8v16c0 4.8-3.2 8-8 8z" id="Shape" fill="#E0E0E0" fill-rule="nonzero"/>
          <path id="1" fill="#616161" d="M19.4199219 11.0507812H16.8125l1.25-2.1289062h3.6328125V24h-2.2753906z"/>
        </g>
        <g id="two" transform="translate(80 120)">
          <path d="M32 32H8c-4.8 0-8-3.2-8-8V8c0-4.8 3.2-8 8-8h24c4.8 0 8 3.2 8 8v16c0 4.8-3.2 8-8 8z" id="Shape" fill="#E0E0E0" fill-rule="nonzero"/>
          <path d="M19.5117188 21.1933594h5.6152343v2.1386718H15l5.234375-6.3378906c.5143255-.6315135.9456363-1.1783831 1.2939453-1.640625.348309-.4622419.6136059-.8496078.7958985-1.1621094.3710956-.6119822.5566406-1.1621069.5566406-1.6503906 0-.7031285-.2473934-1.2923153-.7421875-1.7675781-.4947942-.4752628-1.1067672-.7128906-1.8359375-.7128906-1.5234451 0-2.3958323.9016837-2.6171875 2.7050781h-2.265625C15.784507 9.58852578 17.3893087 8 20.234375 8c1.3737048 0 2.526037.43619355 3.4570312 1.30859375.9375047.87240015 1.40625 1.95311855 1.40625 3.24218745 0 .8203167-.2180967 1.6243451-.6542968 2.4121094-.2213553.4101583-.5452453.8968071-.9716797 1.459961-.4264344.5631538-.965166 1.2288373-1.6162109 1.9970703l-2.34375 2.7734375z" id="2" fill="#616161"/>
        </g>
        <g id="three" transform="translate(136 120)">
          <path d="M32 32H8c-4.8 0-8-3.2-8-8V8c0-4.8 3.2-8 8-8h24c4.8 0 8 3.2 8 8v16c0 4.8-3.2 8-8 8z" id="Shape" fill="#E0E0E0" fill-rule="nonzero"/>
          <path d="M19.3261719 16.3398438v-1.9433594c.9635465 0 1.6113264-.1074208 1.9433593-.3222656.5924509-.3776061.8886719-.9830688.8886719-1.8164063 0-.6445345-.2148416-1.1686178-.6445312-1.5722656-.4231792-.4101583-.9733039-.6152344-1.6503907-.6152344-.6315135 0-1.1197899.1529933-1.4648437.4589844-.3320329.3125015-.5794263.83984-.7421875 1.5820312h-2.265625c.2343762-1.4192779.7161422-2.45930657 1.4453125-3.12011716C17.5651078 8.33040034 18.5839778 8 19.8925781 8c1.3216212 0 2.3990844.39062109 3.2324219 1.171875.8333375.77474346 1.25 1.7740824 1.25 2.9980469 0 1.3802152-.5468695 2.4544232-1.640625 3.2226562 1.2500062.7356808 1.875 1.9303303 1.875 3.5839844 0 1.3541734-.4557246 2.4609332-1.3671875 3.3203125-.9114629.8593793-2.080071 1.2890625-3.5058594 1.2890625-1.8164153 0-3.1640581-.667311-4.0429687-2.0019531-.3645852-.5598987-.5957027-1.3346305-.6933594-2.3242188h2.1972656c.1171881.7291703.402016 1.287433.8544922 1.6748047.4524762.3873717 1.0432906.5810547 1.772461.5810547.7356807 0 1.3443986-.2441382 1.8261718-.7324219.4817733-.5013046.7226563-1.1360638.7226563-1.9042969 0-1.01563-.3613245-1.7382791-1.0839844-2.1679687-.4231792-.2473971-1.0774695-.3710937-1.9628906-.3710937z" id="3" fill="#616161"/>
        </g>
        <g id="four" transform="translate(24 168)">
          <path d="M32 32H8c-4.8 0-8-3.2-8-8V8c0-4.8 3.2-8 8-8h24c4.8 0 8 3.2 8 8v16c0 4.8-3.2 8-8 8z" id="Shape" fill="#E0E0E0" fill-rule="nonzero"/>
          <path d="M23.6777344 19.9921875h1.6015625V22.0625h-1.6015625v2.1386719h-2.2753906V22.0625H14L23.6777344 8v11.9921875zm-2.2753906 0v-5.0488281l-3.4765626 5.0488281h3.4765626z" id="4" fill="#616161"/>
        </g>
        <g id="seven" transform="translate(24 216)">
          <path d="M32 32H8c-4.8 0-8-3.2-8-8V8c0-4.8 3.2-8 8-8h24c4.8 0 8 3.2 8 8v16c0 4.8-3.2 8-8 8z" id="Shape" fill="#E0E0E0" fill-rule="nonzero"/>
          <path id="7" fill="#616161" d="M22.5195312 11.1289062H15.078125V9h11.2402344l-9.5117188 15.5957031L15 23.453125z"/>
        </g>
        <g id="zero" transform="translate(24 264)">
          <path d="M32 32H8c-4.8 0-8-3.2-8-8V8c0-4.8 3.2-8 8-8h24c4.8 0 8 3.2 8 8v16c0 4.8-3.2 8-8 8z" id="Shape" fill="#E0E0E0" fill-rule="nonzero"/>
          <path d="M15 15.6953125c0-2.4023558.5598902-4.3196543 1.6796875-5.75195312C17.6822967 8.64777998 18.8964772 8 20.3222656 8s2.639969.64777998 3.6425782 1.94335938c1.1197972 1.43229882 1.6796874 3.38214912 1.6796874 5.84960942 0 2.4609498-.5598902 4.4075449-1.6796874 5.8398437-1.0026092 1.2955794-2.2135346 1.9433594-3.6328126 1.9433594-1.4192779 0-2.6367136-.64778-3.6523437-1.9433594C15.5598902 20.2005137 15 18.2213668 15 15.6953125zm2.2363281.0097656c0 1.6731855.2897107 3.0631455.8691407 4.1699219.5794299 1.087245 1.3183548 1.6308594 2.2167968 1.6308594.8919316 0 1.6308565-.5436144 2.2167969-1.6308594.5859404-1.0807346.8789063-2.4446532.8789063-4.0917969 0-1.6471436-.2929659-3.0143175-.8789063-4.1015625-.5859404-1.0807345-1.3248653-1.6210937-2.2167969-1.6210937-.8854211 0-1.6210908.5403592-2.2070312 1.6210937-.5859405 1.0742241-.8789063 2.4153566-.8789063 4.0234375z" id="0" fill="#616161"/>
        </g>
        <g id="five" transform="translate(80 168)">
          <path d="M32 32H8c-4.8 0-8-3.2-8-8V8c0-4.8 3.2-8 8-8h24c4.8 0 8 3.2 8 8v16c0 4.8-3.2 8-8 8z" id="Shape" fill="#E0E0E0" fill-rule="nonzero"/>
          <path d="M25.1367188 11.1289062h-4.6484376l-.7421874 2.5c.1106776-.0130208.2164708-.0227864.3173828-.0292968.1009119-.0065105.1936844-.0097656.2783203-.0097656 1.464851 0 2.6660109.4947867 3.6035156 1.484375.9440151.9830778 1.4160156 2.2428308 1.4160156 3.7792968 0 1.5885496-.5338488 2.8971303-1.6015625 3.9257813-1.0677136 1.028651-2.4121012 1.5429687-4.0332031 1.5429687-1.9987079 0-3.574213-.9374906-4.7265625-2.8125l1.71875-1.4550781c.4752628.8072957.9537736 1.3769515 1.4355469 1.7089844.4817732.3255224 1.07096.4882812 1.7675781.4882812.9114629 0 1.6764292-.3190072 2.2949219-.9570312.6184927-.6575554.9277343-1.4550735.9277343-2.3925781 0-.9635465-.3059865-1.7512991-.9179687-2.3632813-.6119822-.6315136-1.3769485-.9472656-2.2949219-.9472656-1.0221405 0-1.9042931.4459591-2.6464844 1.3378906h-.7519531L18.90625 9h6.2304688v2.1289062z" id="5" fill="#616161"/>
        </g>
        <g id="eight" transform="translate(80 216)">
          <path d="M32 32H8c-4.8 0-8-3.2-8-8V8c0-4.8 3.2-8 8-8h24c4.8 0 8 3.2 8 8v16c0 4.8-3.2 8-8 8z" id="Shape" fill="#E0E0E0" fill-rule="nonzero"/>
          <path d="M17.0410156 15.4902344c-1.1067763-.7812539-1.6601562-1.8456964-1.6601562-3.1933594 0-1.2239645.4199177-2.2460896 1.2597656-3.06640625C17.4869834 8.41015215 18.5384052 8 19.7949219 8c1.2500062 0 2.2916625.41015215 3.125 1.23046875.8333375.81380615 1.25 1.83918655 1.25 3.07617185 0 1.2955794-.5501247 2.3535115-1.6503907 3.1738282.6054718.3255224 1.0807275.8007781 1.4257813 1.4257812.3515643.6250031.5273437 1.3281211.5273437 2.109375 0 1.3346421-.4361935 2.4283812-1.3085937 3.28125-.8724002.8528688-1.9889255 1.2792969-3.3496094 1.2792969-1.3932361 0-2.5423132-.4296832-3.4472656-1.2890625C15.4557246 21.4277301 15 20.3470117 15 19.0449219c0-1.6927168.6803317-2.8776008 2.0410156-3.5546875zm.4785156-3.203125c0 .6445344.2180968 1.1848936.6542969 1.6210937.4427106.4427106.9765594.6640625 1.6015625.6640625.6184927 0 1.1490864-.2213519 1.5917969-.6640625.4427105-.4427105.6640625-.9733042.6640625-1.5917969 0-.6184926-.221352-1.1490863-.6640625-1.5917968-.4427105-.4427106-.9733042-.6640625-1.5917969-.6640625-.6184927 0-1.1490863.2213519-1.5917968.6640625-.4427106.4427105-.6640626.9635386-.6640626 1.5625zm-.2832031 6.6796875c0 .696618.240883 1.2955704.7226563 1.796875.4882837.4947941 1.0807257.7421875 1.7773437.7421875.6901076 0 1.2792945-.2441382 1.7675781-.7324219.4882837-.4947941.7324219-1.0872361.7324219-1.7773437 0-.6966181-.2441382-1.2890601-.7324219-1.7773438-.4882836-.4882837-1.0774705-.7324219-1.7675781-.7324219-.6835971 0-1.272784.2441382-1.7675781.7324219-.4882837.4882837-.7324219 1.0709602-.7324219 1.7480469z" id="8" fill="#616161"/>
        </g>
        <g id="plus" transform="translate(80 264)">
          <path d="M32 32H8c-4.8 0-8-3.2-8-8V8c0-4.8 3.2-8 8-8h24c4.8 0 8 3.2 8 8v16c0 4.8-3.2 8-8 8z" id="Shape" fill="#BDBDBD" fill-rule="nonzero"/>
          <path id="+" fill="#616161" d="M15 17.0351562V15.21875h4.296875V11h1.8066406v4.21875h4.296875v1.8164062h-4.296875v4.21875H19.296875v-4.21875z"/>
        </g>
        <g id="six" transform="translate(136 168)">
          <path d="M32 32H8c-4.8 0-8-3.2-8-8V8c0-4.8 3.2-8 8-8h24c4.8 0 8 3.2 8 8v16c0 4.8-3.2 8-8 8z" id="Shape" fill="#E0E0E0" fill-rule="nonzero"/>
          <path d="M21.7480469 8l1.6699219 1.25-3.6035157 4.9023438c.1953135-.0260418.3613275-.0455729.4980469-.0585938.1367194-.0130209.2441402-.0195312.3222656-.0195312 1.2239645 0 2.2818966.4687453 3.1738282 1.40625.885421.9244837 1.328125 2.0377539 1.328125 3.3398437 0 1.3802152-.4947868 2.5650992-1.484375 3.5546875-.9830779.9830778-2.1647067 1.4746094-3.5449219 1.4746094-1.3671944 0-2.565099-.4850212-3.59375-1.4550782C15.5045522 21.4244743 15 20.2753973 15 18.9472656c0-1.1914122.4915315-2.4544204 1.4746094-3.7890625L21.7480469 8zm1.171875 10.9667969c0-.8007853-.27669-1.4778618-.8300781-2.03125-.5598987-.5598987-1.2337201-.8398438-2.0214844-.8398438-.7942748 0-1.4680962.27669-2.0214844.8300781-.5533882.5533882-.8300781 1.2239544-.8300781 2.0117188 0 .7877644.2766899 1.4583306.8300781 2.0117188.5533882.5533881 1.2304647.8300781 2.03125.8300781.7812539 0 1.4485649-.27669 2.0019531-.8300781.5598987-.5598987.8398438-1.2206994.8398438-1.9824219z" id="6" fill="#616161"/>
        </g>
        <g id="multiplied" transform="translate(192 168)">
          <path d="M32 32H8c-4.8 0-8-3.2-8-8V8c0-4.8 3.2-8 8-8h24c4.8 0 8 3.2 8 8v16c0 4.8-3.2 8-8 8z" id="Shape" fill="#BDBDBD" fill-rule="nonzero"/>
          <path id="*" fill="#4F4D4D" d="M19.0664062 14.6367188L18.9199219 12h1.9628906l-.15625 2.6367188 2.4707031-.9570313.6054688 1.8652344-2.5585938.6640625 1.6699219 2.0507812-1.5820313 1.1523438-1.4355468-2.2265625-1.4257813 2.2265625-1.5917969-1.1523438 1.6796876-2.0410156L16 15.5449219l.6054688-1.8652344z"/>
        </g>
        <g id="divided" transform="translate(192 216)">
          <path d="M32 32H8c-4.8 0-8-3.2-8-8V8c0-4.8 3.2-8 8-8h24c4.8 0 8 3.2 8 8v16c0 4.8-3.2 8-8 8z" id="Shape" fill="#BDBDBD" fill-rule="nonzero"/>
          <path id="/" fill="#4F4D4D" d="M23.3698602 7l1.5541882.68517975L17.5374765 24.78125 16 24.0877144z"/>
        </g>
        <g id="equal" transform="translate(192 264)">
          <path d="M32 32H8c-4.8 0-8-3.2-8-8V8c0-4.8 3.2-8 8-8h24c4.8 0 8 3.2 8 8v16c0 4.8-3.2 8-8 8z" id="Shape" fill="#BDBDBD" fill-rule="nonzero"/>
          <path d="M13 15.097166V12h14v3.097166H13zM13 21v-3.097166h14V21H13z" id="=" fill="#616161"/>
        </g>
        <g id="clear" filter="url(#filter-1)" transform="translate(192 120)">
          <path d="M32 32H8c-4.8 0-8-3.2-8-8V8c0-4.8 3.2-8 8-8h24c4.8 0 8 3.2 8 8v16c0 4.8-3.2 8-8 8z" id="Shape" fill="#FF5252" fill-rule="nonzero"/>
          <path d="M24.8945312 9.10351562v2.69531248c-1.3151107-1.1002659-2.6757742-1.6503906-4.0820312-1.6503906-1.5494869 0-2.8548124.5566351-3.9160156 1.6699219-1.0677137 1.1067763-1.6015625 2.4609295-1.6015625 4.0625 0 1.5820391.5338488 2.9166612 1.6015625 4.0039062 1.0677136 1.087245 2.3762943 1.6308594 3.9257812 1.6308594.8007853 0 1.481117-.130207 2.0410156-.390625.3125016-.130209.6363916-.3059885.9716797-.5273438.3352882-.2213552.6884747-.4882796 1.0595703-.8007812v2.7441406c-1.3020898.7356808-2.6692636 1.1035156-4.1015624 1.1035156-2.1549587 0-3.9941331-.7519456-5.5175782-2.2558593C13.758456 19.8717372 13 18.0423284 13 15.9003906c0-1.9205825.6347593-3.632805 1.9042969-5.1367187C16.4668047 8.92121475 18.4882688 8 20.96875 8c1.3541734 0 2.6627541.36783486 3.9257812 1.10351562z" id="C" fill="#7A2626"/>
        </g>
        <g id="nine" transform="translate(136 216)">
          <path d="M32 32H8c-4.8 0-8-3.2-8-8V8c0-4.8 3.2-8 8-8h24c4.8 0 8 3.2 8 8v16c0 4.8-3.2 8-8 8z" id="Shape" fill="#E0E0E0" fill-rule="nonzero"/>
          <path d="M18.3886719 23.8496094L16.71875 22.609375l3.6035156-4.9121094c-.1953135.0260418-.3613274.0455729-.4980468.0585938-.1367195.0130209-.2473955.0195312-.3320313.0195312-1.217454 0-2.272131-.4654901-3.1640625-1.3964844C15.4427039 15.4544225 15 14.3411523 15 13.0390625c0-1.3867257.4915315-2.5716097 1.4746094-3.5546875C17.4641977 8.49478672 18.6490816 8 20.0292969 8c1.3737048 0 2.5683543.48827637 3.5839843 1.46484375 1.0156301.97005695 1.5234376 2.11587885 1.5234376 3.43750005 0 1.1718808-.4947868 2.4381442-1.484375 3.7988281l-5.2636719 7.1484375zm-1.171875-10.9765625c0 .8138061.2766899 1.497393.8300781 2.0507812.5598986.5598987 1.23372.8398438 2.0214844.8398438.7877643 0 1.4583305-.27669 2.0117187-.8300781.5598987-.5598987.8398438-1.2337201.8398438-2.0214844 0-.7877644-.2799451-1.4615858-.8398438-2.0214844-.5533882-.5533882-1.2272095-.8300781-2.0214843-.8300781-.781254 0-1.448565.2766899-2.0019532.8300781-.5598986.5598986-.8398437 1.2206993-.8398437 1.9824219z" id="9" fill="#616161"/>
        </g>
        <g id="less" transform="translate(136 264)">
          <path d="M32 32H8c-4.8 0-8-3.2-8-8V8c0-4.8 3.2-8 8-8h24c4.8 0 8 3.2 8 8v16c0 4.8-3.2 8-8 8z" id="Shape" fill="#BDBDBD" fill-rule="nonzero"/>
          <path id="-" fill="#616161" d="M14 15h12v3H14z"/>
        </g>
        <text id="input" font-family="Futura-Medium, Futura" font-size="36" font-weight="400" fill="#3F3D3D">
          <tspan x="38" y="66">5 + 9</tspan>
        </text>
      </g>
    </g>
  </g>
</svg>
